<svg id="Layer_1" data-name="Layer 1" xmlns="http://www.w3.org/2000/svg" viewBox="0 0 3350.36 790.07"><defs><style>.cls-1{fill:#005f3a;}.cls-2{fill:#a17c30;}</style></defs><path class="cls-1" d="M779,247.29l56.76.14,236,349.7V247.29H1114v421h-42.17L821.18,298V668.26H779Z"/><path class="cls-1" d="M1251.25,247.29h42.15v421h-42.15Z"/><path class="cls-1" d="M1430.69,247.29h100.25q43.29,0,68.93,3.14T1654,269.79q28.47,16.23,45.28,46.4t16.81,68.32q0,51.27-36.41,88.83t-87.62,37.58l118.49,157.21-52.57.13L1515,477.43h24.5q32.46,0,49.56-2.85t36.74-11.68q19.65-8.82,33.89-31t14.24-51.27a90.57,90.57,0,0,0-10.54-42.44,91.51,91.51,0,0,0-28.76-33,95,95,0,0,0-41.3-16.23q-23.07-3.42-53.83-3.42h-66.65v382.8h-42.15Z"/><path class="cls-1" d="M1971.84,247.29h46.71l180.58,421-45.82.11L2092.67,527H1896.41l-60.94,141.17-45.33.1Zm103.83,241.53-80.52-193.48-82.27,193.48Z"/><path class="cls-1" d="M2299.38,247.29l56.77.14,236,349.7V247.29h42.15v421h-42.16L2341.53,298V668.26h-42.15Z"/><path class="cls-1" d="M2829.14,285.46H2732.3V247.29H2967v38.17h-95.7v382.8h-42.15Z"/><path class="cls-1" d="M3065,247.29h100.25q43.29,0,68.93,3.14t54.12,19.36q28.47,16.23,45.28,46.4t16.81,68.32q0,51.27-36.41,88.83t-87.62,37.58l118.49,157.21-52.57.13-143-190.83h24.5q32.46,0,49.56-2.85t36.74-11.68q19.65-8.82,33.89-31t14.24-51.27a93.43,93.43,0,0,0-39.3-75.48,95,95,0,0,0-41.3-16.23q-23.07-3.42-53.83-3.42h-66.65v382.8H3065Z"/><path class="cls-2" d="M107.43,646.12H0V0L274.54,274.54a53.39,53.39,0,0,1,0,75.52l-.45.45a53.4,53.4,0,0,1-75.51,0h0c-33.64-33.64-91.15-9.82-91.15,37.75Z"/><path class="cls-2" d="M433.29,790.07,158.75,515.53a53.4,53.4,0,0,1,0-75.51l.45-.45a53.38,53.38,0,0,1,75.51,0h0c33.64,33.63,91.16,9.81,91.16-37.76V144H433.29Z"/></svg>