<svg id="Layer_1" data-name="Layer 1" xmlns="http://www.w3.org/2000/svg" viewBox="0 0 2571.33 421.07"><defs><style>.cls-1{fill:#fff;}</style></defs><path class="cls-1" d="M0,0,56.77.14l236,349.7V0H335V421H292.79L42.15,50.7V421H0Z"/><path class="cls-1" d="M472.23,0h42.15V421H472.23Z"/><path class="cls-1" d="M651.66,0H751.92q43.27,0,68.92,3.13T875,22.49q28.49,16.23,45.29,46.41t16.8,68.32q0,51.25-36.41,88.83T813,263.63L931.51,420.84,879,421,736,230.14h24.49q32.47,0,49.56-2.85t36.74-11.68q19.66-8.82,33.9-31.05T894.9,133.3a93.41,93.41,0,0,0-39.31-75.48,94.9,94.9,0,0,0-41.3-16.24q-23.07-3.4-53.83-3.41H693.81V421H651.66Z"/><path class="cls-1" d="M1192.82,0h46.71L1420.1,421l-45.82.1-60.64-141.38H1117.38l-60.94,141.18-45.33.1Zm103.82,241.53L1216.13,48.05l-82.28,193.48Z"/><path class="cls-1" d="M1520.35,0l56.77.14,236,349.7V0h42.15V421h-42.16L1562.51,50.7V421h-42.16Z"/><path class="cls-1" d="M2050.12,38.17h-96.85V0H2188V38.17h-95.7V421h-42.15Z"/><path class="cls-1" d="M2285.94,0H2386.2q43.28,0,68.92,3.13t54.12,19.36q28.49,16.23,45.29,46.41t16.8,68.32q0,51.25-36.41,88.83t-87.62,37.58l118.49,157.21-52.56.13-143-190.83h24.49q32.48,0,49.56-2.85T2481,215.61q19.66-8.82,33.9-31.05t14.24-51.26a93.41,93.41,0,0,0-39.31-75.48,94.86,94.86,0,0,0-41.29-16.24q-23.09-3.4-53.84-3.41H2328.1V421h-42.16Z"/></svg>