<svg version="1.1" id="svg2" width="7016.8267" height="3946.96" viewBox="0 0 7016.8267 3946.96" sodipodi:docname="vecteezy_business-man-looking-for-the-future-abstract-vision-concept_.eps" xmlns:inkscape="http://www.inkscape.org/namespaces/inkscape" xmlns:sodipodi="http://sodipodi.sourceforge.net/DTD/sodipodi-0.dtd" xmlns="http://www.w3.org/2000/svg" xmlns:svg="http://www.w3.org/2000/svg">
  <defs id="defs6"/>
  <sodipodi:namedview id="namedview4" pagecolor="#ffffff" bordercolor="#000000" borderopacity="0.25" inkscape:showpageshadow="2" inkscape:pageopacity="0.0" inkscape:pagecheckerboard="0" inkscape:deskcolor="#d1d1d1"/>
  <g id="g8" inkscape:groupmode="layer" inkscape:label="ink_ext_XXXXXX" transform="matrix(1.3333333,0,0,-1.3333333,0,3946.96)">
    <g id="g10" transform="scale(0.1)">
      <path d="M 52626.2,0 H 0 V 29602.2 H 52626.2 V 0" style="fill:#005F3A;fill-opacity:1;fill-rule:evenodd;stroke:none" id="path12"/>
      <path d="m 26313.1,26813.7 c 9386.5,0 16995.7,-7609.3 16995.7,-16995.8 0,-3296.8 -939.7,-6373.6 -2564.3,-8979.302 H 11881.7 C 10257,3444.3 9317.24,6521.1 9317.24,9817.9 c 0,9386.5 7609.36,16995.8 16995.86,16995.8" style="fill:#A17C30;fill-opacity:1;fill-rule:evenodd;stroke:none" id="path14"/>
      <path d="M 26313.1,0 C 37392.4,0 46428.9,376.699 46428.9,838.598 46428.9,1300.5 37392.4,1677.4 26313.1,1677.4 15233.7,1677.4 6197.3,1300.5 6197.3,838.598 6197.3,376.699 15233.7,0 26313.1,0" style="fill:#005F3A;fill-opacity:1;fill-rule:evenodd;stroke:none" id="path16"/>
      <path d="M 20390.3,19701.1 C 20034.5,12100.1 15325.6,5343.6 8246.85,2405 V 838.598 H 44379.3 V 2405 C 37300.4,5343.6 32591.5,12100.1 32235.9,19701.1 l 5359.3,-1566.5 v 1566.5 l -5641.1,4718.8 -5641,4719 -5641.1,-4719 -5641.1,-4718.8 v -1566.5 l 5359.4,1566.5" style="fill:#A17C30;fill-opacity:1;fill-rule:evenodd;stroke:none" id="path18"/>
      <path d="M 20390.3,18134.6 C 20034.5,10533.6 15325.6,3777.2 8246.85,838.598 H 26313.1 44379.3 C 37300.4,3777.2 32591.5,10533.6 32235.9,18134.6 h 5359.3 l -5641.1,4718.9 -5641,4718.9 -5641.1,-4718.9 -5641.1,-4718.9 h 5359.4" style="fill:#005F3A;fill-opacity:1;fill-rule:evenodd;stroke:none" id="path20"/>      <path d="m 25384.6,18091.3 c -121.1,-27.8 -179.9,-222.2 -131.3,-434.3 48.6,-212.1 186.2,-361.6 307.3,-333.8 121.1,27.7 179.8,222.1 131.3,434.3 -48.6,212.1 -186.2,361.5 -307.3,333.8 z m 1791.3,0 c 121.1,-27.8 180,-222.2 131.4,-434.3 -48.6,-212.1 -186.2,-361.6 -307.2,-333.8 -121.2,27.7 -180,222.1 -131.3,434.3 48.5,212.1 186.1,361.5 307.1,333.8 v 0" style="fill:#fbc589;fill-opacity:1;fill-rule:evenodd;stroke:none" id="path22"/>
      <path d="M 11955.3,2867.4 C 10810.6,2070.6 9570.1,1387.9 8246.85,838.598 L 26313.1,682 44379.3,838.598 C 43055.9,1387.9 41815.5,2070.6 40670.9,2867.4 c -4139.6,839.1 -9067.9,1326 -14357.8,1326 -5290,0 -10218.3,-486.9 -14357.8,-1326" style="fill:#de6d52;fill-opacity:1;fill-rule:evenodd;stroke:none" id="path24"/>
      <path d="m 21599.3,19649.2 68.5,143.6 c 25.3,52.9 43.9,108.8 55.5,166.4 l 29.4,277.4 c 12.7,120.8 56,236.5 125.7,336.2 125.2,179 -112.1,188.4 -218.7,133.7 -102.9,-52.7 -154.5,-188 -174.6,-301.8 -7,-38.9 -119.2,-70.6 -153.4,-50.6 l -124,133.8 c -58.3,62.8 -155.1,70 -221.9,16.3 -198,-158.9 -502,-203 -627.5,-423.6 -25.5,-44.9 -32,-98.2 -17.9,-147.9 14.1,-49.7 47.6,-91.6 92.9,-116.5 124.7,-171.1 375.9,-384.8 525.7,-411.7 109.6,-89.5 258.8,-113.6 391,-63.1 132.2,50.6 190.9,185.3 249.3,307.8" style="fill:#fbc589;fill-opacity:1;fill-rule:evenodd;stroke:none" id="path26"/>
      <path d="m 20604.7,21291.4 c 103.2,53.6 328.9,-176.5 504.3,-514 175.3,-337.4 233.7,-654.5 130.6,-708.1 -103.1,-53.5 -276.7,233.7 -452,571.1 -175.3,337.5 -286,597.5 -182.9,651" style="fill:#fbc589;fill-opacity:1;fill-rule:evenodd;stroke:none" id="path28"/>
      <path d="m 20868,19198.4 c 54.8,254.1 323.2,499 599.5,547 276.3,48.1 455.8,-119 401.1,-373.2 -54.9,-254 -323.3,-499 -599.6,-547 -276.3,-48 -455.8,119 -401,373.2" style="fill:#ffffff;fill-opacity:1;fill-rule:evenodd;stroke:none" id="path30"/>
      <path d="m 20229.6,21232.3 c 98,62.6 343.5,-146.4 548.3,-466.8 204.8,-320.4 291.4,-631 193.6,-693.6 -98,-62.5 -296.6,208 -501.4,528.4 -204.8,320.4 -338.4,569.4 -240.5,632" style="fill:#fbc589;fill-opacity:1;fill-rule:evenodd;stroke:none" id="path32"/>
      <path d="m 20190.8,21051.6 c -101.5,-56.8 -33,-371.9 152.8,-703.6 185.9,-331.8 418.8,-554.8 520.2,-497.9 101.4,56.8 -43.4,359.5 -229.3,691.3 -185.8,331.8 -342.4,567.1 -443.7,510.2" style="fill:#fbc589;fill-opacity:1;fill-rule:evenodd;stroke:none" id="path34"/>
      <path d="m 19952.2,20411.2 c -58.5,-71.4 83.5,-284.6 317.3,-476 233.7,-191.4 470.7,-288.7 529.2,-217.2 58.5,71.4 -136.4,253.2 -370.2,444.7 -233.7,191.4 -417.8,320 -476.3,248.5" style="fill:#fbc589;fill-opacity:1;fill-rule:evenodd;stroke:none" id="path36"/>
      <path d="m 31026.8,19649.2 -68.5,143.6 c -25.2,52.9 -43.9,108.8 -55.5,166.4 l -29.4,277.4 c -12.7,120.8 -56.1,236.5 -125.7,336.2 -125.2,179 112.2,188.4 218.7,133.7 102.9,-52.7 154.5,-188 174.6,-301.8 6.9,-38.9 119.3,-70.6 153.5,-50.6 l 123.9,133.8 c 58.2,62.8 155.2,70 221.9,16.3 197.9,-158.9 502,-203 627.4,-423.6 25.7,-44.9 32.1,-98.2 17.9,-147.9 -14,-49.7 -47.5,-91.6 -92.8,-116.5 -124.7,-171.1 -375.9,-384.8 -525.8,-411.7 -109.5,-89.5 -258.7,-113.6 -390.9,-63.1 -132.2,50.6 -190.9,185.3 -249.3,307.8" style="fill:#fbc589;fill-opacity:1;fill-rule:evenodd;stroke:none" id="path38"/>
      <path d="m 32021.4,21291.4 c -103.1,53.6 -328.9,-176.5 -504.3,-514 -175.3,-337.4 -233.8,-654.5 -130.6,-708.1 103.1,-53.5 276.7,233.7 452,571.1 175.3,337.5 286,597.5 182.9,651" style="fill:#fbc589;fill-opacity:1;fill-rule:evenodd;stroke:none" id="path40"/>
      <path d="m 31758.2,19198.4 c -55,254.1 -323.3,499 -599.6,547 -276.4,48.1 -455.8,-119 -401,-373.2 54.8,-254 323.2,-499 599.5,-547 276.2,-48 455.8,119 401.1,373.2" style="fill:#ffffff;fill-opacity:1;fill-rule:evenodd;stroke:none" id="path42"/>
      <path d="m 32396.4,21232.3 c -97.9,62.6 -343.4,-146.4 -548.3,-466.8 -204.8,-320.4 -291.3,-631 -193.5,-693.6 98,-62.5 296.6,208 501.3,528.4 205,320.4 338.5,569.4 240.5,632" style="fill:#fbc589;fill-opacity:1;fill-rule:evenodd;stroke:none" id="path44"/>
      <path d="m 32435.3,21051.6 c 101.4,-56.8 33,-371.9 -152.8,-703.6 -185.8,-331.8 -418.8,-554.8 -520.2,-497.9 -101.3,56.8 43.4,359.5 229.4,691.3 185.7,331.8 342.2,567.1 443.6,510.2" style="fill:#fbc589;fill-opacity:1;fill-rule:evenodd;stroke:none" id="path46"/>
      <path d="m 32673.8,20411.2 c 58.6,-71.4 -83.5,-284.6 -317.2,-476 -233.7,-191.4 -470.7,-288.7 -529.2,-217.2 -58.6,71.4 136.5,253.2 370.2,444.7 233.8,191.4 417.7,320 476.2,248.5" style="fill:#fbc589;fill-opacity:1;fill-rule:evenodd;stroke:none" id="path48"/>
      <path d="m 27006,16333 c 207.8,180.1 456.2,307.2 723.9,370.6 l 2801.5,2856.2 c 470.6,479.8 1705,-499.1 1144.4,-1113 l -2915.5,-3192.4 -280.1,-4124.6 380.2,-1180.7 c -970.8,-1279.1 -4123.9,-1279.1 -5094.7,0 l 380.2,1180.7 -280.2,4124.6 -2915.5,3192.4 c -560.6,613.9 673.9,1592.7 1144.4,1113 l 2801.6,-2856.2 c 267.7,-63.4 516.1,-190.5 723.8,-370.6 l 67,115.9 h 1252.2 l 66.8,-115.9" style="fill:#43221c;fill-opacity:1;fill-rule:evenodd;stroke:none" id="path50"/>
      <path d="m 28860.4,9949.1 c -970.8,-1279.1 -4123.9,-1279.1 -5094.7,0 1152.3,943 3942.4,943 5094.7,0" style="fill:#191412;fill-opacity:1;fill-rule:evenodd;stroke:none" id="path52"/>
      <path d="M 24292.2,10276.8 22495,264.801 h 2419 L 26313.1,7526.1 27712,264.801 h 2419.1 L 28333.8,10276.8 c -1126.4,505.8 -2915.1,505.9 -4041.6,0" style="fill:#361d18;fill-opacity:1;fill-rule:evenodd;stroke:none" id="path54"/>
      <path d="m 28812.9,1762 287.2,-235.9 c 295.5,-242.8 655.3,-399.1 1037.8,-450.9 182.7,-24.8 344.5,-128.501 440.6,-282.501 96.1,-153.801 116.5,-341.699 55.4,-511.898 l -1977.7,-16 z m -4999.7,0 -287.3,-235.9 c -295.5,-242.8 -655.2,-399.1 -1037.7,-450.9 -182.8,-24.8 -344.6,-128.501 -440.7,-282.501 -96.1,-153.801 -116.4,-341.699 -55.3,-511.898 l 1977.7,-16 L 23813.2,1762 v 0" style="fill:#361d18;fill-opacity:1;fill-rule:evenodd;stroke:none" id="path56"/>
      <path d="M 25408.6,18641 H 27152 v -1320.4 c 0,-479.4 -392.2,-871.7 -871.7,-871.7 h -0.1 c -479.3,0 -871.6,392.3 -871.6,871.7 V 18641" style="fill:#fbc589;fill-opacity:1;fill-rule:evenodd;stroke:none" id="path58"/>
      <path d="M 25738.5,16448.9 H 26822 v 1390.6 h -1083.5 v -1390.6" style="fill:#fbc589;fill-opacity:1;fill-rule:evenodd;stroke:none" id="path60"/>
      <path d="m 26280.3,16853.8 h 359 c 180.2,0 339.2,117.9 391.6,290.4 124.4,409.8 209.7,830.6 254.6,1256.5 28,266.1 -65.2,530.6 -253.7,720.5 -356.4,358.7 -1146.6,358.7 -1503,0 -188.6,-189.9 -281.7,-454.4 -253.7,-720.5 44.9,-425.9 130.1,-846.7 254.6,-1256.5 52.3,-172.5 211.4,-290.4 391.5,-290.4 h 359.1" style="fill:#43221c;fill-opacity:1;fill-rule:evenodd;stroke:none" id="path62"/>
    </g>
  </g>
</svg>