<svg xmlns="http://www.w3.org/2000/svg" xmlns:xlink="http://www.w3.org/1999/xlink" width="3000.75" height="3000" viewBox="0 0 3000.75 3000">
<defs fill="#000000">
<clipPath id="clip-0" fill="#000000">

</clipPath>
</defs>
<path fill-rule="evenodd" fill="#f5f5f5" fill-opacity="1" d="M 3000.75 0 L 0.746094 0 L 0.746094 3000 L 3000.75 3000 L 3000.75 0 "/>
<g clip-path="url(#clip-0)">
<path fill-rule="evenodd" fill="#f5f5f5" fill-opacity="1" d="M 3000.75 0 L 0.746094 0 L 0.746094 3000 L 3000.75 3000 L 3000.75 0 "/>
</g>
<path fill-rule="evenodd" fill="#eef7f6" fill-opacity="1" d="M 480.5 2506.140625 C 480.5 2506.140625 234.207031 2305.152344 341.628906 1954.910156 C 449.050781 1604.671875 643.246094 1610.640625 548.789062 1314.53125 C 398.847656 844.488281 835.484375 608.628906 1161.089844 575 C 1462.058594 543.910156 1775.039062 376.21875 2000.371094 639.910156 C 2225.691406 903.609375 2155.351562 1020.898438 2460.621094 1196.371094 C 2765.898438 1371.839844 2450.710938 1698.308594 2548.140625 1874.21875 C 2645.558594 2050.132812 2793.898438 2308.28125 2568.96875 2500.890625 L 480.5 2506.140625 "/>
<path fill-rule="evenodd" fill="rgb(79.296875%, 90.625%, 89.451599%)" fill-opacity="1" d="M 2484.328125 1860.328125 L 2484.328125 1888.558594 C 2479.769531 1888.410156 2475.328125 1887.761719 2471.070312 1886.671875 C 2470 1885.410156 2468.980469 1884.03125 2467.988281 1882.53125 C 2464.660156 1877.488281 2461.800781 1871.199219 2459.578125 1863.988281 C 2467.21875 1861.800781 2475.570312 1860.511719 2484.328125 1860.328125 Z M 2488.539062 1860.328125 C 2497.300781 1860.511719 2505.648438 1861.800781 2513.300781 1863.988281 C 2511.070312 1871.199219 2508.21875 1877.488281 2504.878906 1882.53125 C 2503.898438 1884.03125 2502.871094 1885.410156 2501.808594 1886.671875 C 2497.550781 1887.761719 2493.109375 1888.410156 2488.539062 1888.558594 Z M 2455.570312 1865.25 C 2457.878906 1872.699219 2460.820312 1879.21875 2464.238281 1884.488281 C 2456.21875 1881.410156 2449 1876.699219 2442.988281 1870.769531 C 2446.851562 1868.628906 2451.070312 1866.78125 2455.570312 1865.25 Z M 2517.308594 1865.25 C 2521.808594 1866.78125 2526.019531 1868.628906 2529.890625 1870.769531 C 2523.878906 1876.699219 2516.660156 1881.410156 2508.640625 1884.488281 C 2512.058594 1879.21875 2515 1872.699219 2517.308594 1865.25 Z M 2450.128906 1828.789062 C 2450.289062 1840.511719 2451.828125 1851.53125 2454.410156 1861.210938 C 2449.230469 1862.960938 2444.398438 1865.121094 2440.011719 1867.621094 L 2440 1867.609375 C 2439.238281 1866.75 2438.5 1865.871094 2437.789062 1864.96875 C 2436.371094 1863.171875 2435.050781 1861.289062 2433.839844 1859.328125 C 2431.21875 1855.128906 2429.109375 1850.609375 2427.570312 1845.898438 C 2426.480469 1842.550781 2425.671875 1839.109375 2425.171875 1835.628906 C 2424.839844 1833.390625 2424.640625 1831.128906 2424.558594 1828.878906 L 2424.558594 1828.789062 Z M 2548.320312 1828.789062 C 2547.820312 1843.660156 2542.070312 1857.199219 2532.871094 1867.621094 C 2528.480469 1865.121094 2523.648438 1862.960938 2518.46875 1861.210938 C 2521.050781 1851.53125 2522.578125 1840.511719 2522.75 1828.789062 Z M 2518.539062 1828.789062 C 2518.371094 1840.058594 2516.921875 1850.648438 2514.460938 1859.949219 C 2506.449219 1857.648438 2497.710938 1856.300781 2488.539062 1856.121094 L 2488.539062 1828.789062 Z M 2454.339844 1828.789062 L 2484.328125 1828.789062 L 2484.328125 1856.121094 C 2475.171875 1856.300781 2466.429688 1857.648438 2458.421875 1859.949219 C 2455.960938 1850.648438 2454.5 1840.058594 2454.339844 1828.789062 Z M 2440.011719 1785.738281 C 2444.398438 1788.25 2449.230469 1790.410156 2454.410156 1792.160156 C 2451.828125 1801.839844 2450.289062 1812.859375 2450.128906 1824.578125 L 2424.558594 1824.578125 C 2425.058594 1809.710938 2430.808594 1796.171875 2440.011719 1785.738281 Z M 2514.460938 1793.410156 C 2516.921875 1802.710938 2518.371094 1813.308594 2518.539062 1824.578125 L 2488.539062 1824.578125 L 2488.539062 1797.238281 C 2497.710938 1797.058594 2506.449219 1795.71875 2514.460938 1793.410156 Z M 2532.878906 1785.761719 C 2533.640625 1786.609375 2534.371094 1787.488281 2535.078125 1788.390625 C 2536.511719 1790.199219 2537.828125 1792.078125 2539.039062 1794.03125 C 2541.660156 1798.238281 2543.769531 1802.761719 2545.308594 1807.460938 C 2546.398438 1810.808594 2547.210938 1814.261719 2547.710938 1817.738281 C 2548.03125 1819.980469 2548.230469 1822.230469 2548.308594 1824.488281 L 2548.320312 1824.578125 L 2522.75 1824.578125 C 2522.578125 1812.859375 2521.050781 1801.828125 2518.46875 1792.160156 C 2523.648438 1790.410156 2528.480469 1788.25 2532.871094 1785.738281 Z M 2458.421875 1793.410156 C 2466.429688 1795.71875 2475.171875 1797.058594 2484.328125 1797.238281 L 2484.328125 1824.578125 L 2454.339844 1824.578125 C 2454.5 1813.308594 2455.960938 1802.710938 2458.421875 1793.410156 Z M 2484.328125 1764.800781 L 2484.328125 1793.03125 C 2475.578125 1792.851562 2467.21875 1791.570312 2459.578125 1789.371094 C 2461.800781 1782.171875 2464.660156 1775.878906 2467.988281 1770.828125 C 2468.980469 1769.339844 2470 1767.960938 2471.070312 1766.699219 C 2475.328125 1765.609375 2479.769531 1764.960938 2484.328125 1764.800781 Z M 2488.539062 1764.800781 C 2493.109375 1764.960938 2497.550781 1765.609375 2501.808594 1766.699219 C 2502.871094 1767.960938 2503.898438 1769.339844 2504.878906 1770.828125 C 2508.21875 1775.878906 2511.070312 1782.171875 2513.300781 1789.371094 C 2505.660156 1791.570312 2497.300781 1792.851562 2488.539062 1793.03125 Z M 2464.238281 1768.871094 C 2460.820312 1774.140625 2457.878906 1780.671875 2455.570312 1788.121094 C 2451.070312 1786.589844 2446.851562 1784.730469 2442.988281 1782.589844 C 2449 1776.671875 2456.21875 1771.960938 2464.238281 1768.871094 Z M 2508.640625 1768.871094 C 2516.660156 1771.960938 2523.878906 1776.671875 2529.890625 1782.589844 C 2526.019531 1784.730469 2521.808594 1786.589844 2517.308594 1788.121094 C 2515 1780.671875 2512.058594 1774.140625 2508.640625 1768.871094 "/>
<path fill-rule="evenodd" fill="rgb(79.296875%, 90.625%, 89.451599%)" fill-opacity="1" d="M 2214.949219 1200.679688 L 2188.390625 1174.109375 L 2295.601562 1153.871094 L 2275.359375 1261.078125 L 2246.769531 1232.5 L 2008.871094 1470.410156 L 1907.691406 1369.230469 L 1682.371094 1594.550781 L 1650.589844 1562.78125 L 1907.761719 1305.519531 L 2008.871094 1406.769531 L 2214.949219 1200.679688 "/>
<path fill-rule="evenodd" fill="rgb(62.304688%, 78.709412%, 81.639099%)" fill-opacity="1" d="M 890.84375 1005.929688 L 939.164062 1005.929688 L 939.164062 1144.570312 L 890.84375 1144.570312 L 890.84375 1005.929688 "/>
<path fill-rule="evenodd" fill="rgb(62.304688%, 78.709412%, 81.639099%)" fill-opacity="1" d="M 821.886719 1027.921875 L 870.207031 1027.921875 L 870.207031 1144.570312 L 821.886719 1144.570312 L 821.886719 1027.921875 "/>
<path fill-rule="evenodd" fill="rgb(62.304688%, 78.709412%, 81.639099%)" fill-opacity="1" d="M 751.539062 1054.089844 L 799.859375 1054.089844 L 799.859375 1144.570312 L 751.539062 1144.570312 L 751.539062 1054.089844 "/>
<path fill-rule="evenodd" fill="rgb(62.304688%, 78.709412%, 81.639099%)" fill-opacity="1" d="M 682.582031 1077.449219 L 730.902344 1077.449219 L 730.902344 1144.570312 L 682.582031 1144.570312 L 682.582031 1077.449219 "/>
<path fill-rule="evenodd" fill="rgb(79.296875%, 90.625%, 89.451599%)" fill-opacity="1" d="M 906.140625 927.488281 L 893.054688 914.398438 L 945.859375 904.429688 L 935.890625 957.238281 L 921.8125 943.160156 L 870.207031 994.769531 L 842.90625 967.460938 L 782.660156 1027.710938 L 748.679688 993.730469 L 689.804688 1052.601562 L 674.132812 1036.929688 L 748.679688 962.378906 L 782.660156 996.359375 L 842.9375 936.089844 L 870.207031 963.421875 L 906.140625 927.488281 "/>
<path fill-rule="evenodd" fill="rgb(14.109802%, 22.705078%, 61.521912%)" fill-opacity="1" d="M 1506.25 703.820312 L 1489.429688 703.820312 L 1489.429688 1350.441406 L 1506.25 1350.441406 L 1506.25 703.820312 "/>
<path fill-rule="evenodd" fill="rgb(14.109802%, 22.705078%, 61.521912%)" fill-opacity="1" d="M 2000.859375 1321.558594 L 2486.441406 2486.011719 L 1515.289062 2486.011719 L 2000.859375 1321.558594 "/>
<path fill-rule="evenodd" fill="rgb(62.304688%, 78.709412%, 81.639099%)" fill-opacity="1" d="M 2145.550781 1668.539062 L 2000.859375 1321.558594 L 1827.128906 1738.179688 L 1919.441406 1667.539062 L 1990.351562 1789.648438 L 2045.691406 1642.480469 L 2136.078125 1727.320312 L 2145.550781 1668.539062 "/>
<path fill-rule="evenodd" fill="rgb(14.109802%, 22.705078%, 61.521912%)" fill-opacity="1" d="M 994.820312 1321.558594 L 509.242188 2486.011719 L 1480.398438 2486.011719 L 994.820312 1321.558594 "/>
<path fill-rule="evenodd" fill="rgb(62.304688%, 78.709412%, 81.639099%)" fill-opacity="1" d="M 850.128906 1668.539062 L 994.820312 1321.558594 L 1168.550781 1738.179688 L 1076.238281 1667.539062 L 1005.339844 1789.648438 L 949.984375 1642.480469 L 866.898438 1722 L 850.128906 1668.539062 "/>
<path fill-rule="evenodd" fill="rgb(7.788086%, 52.539062%, 81.25%)" fill-opacity="1" d="M 1497.839844 1046.128906 L 868.222656 2486.011719 L 2127.460938 2486.011719 L 1497.839844 1046.128906 "/>
<path fill-rule="evenodd" fill="rgb(3.100586%, 64.256287%, 86.71875%)" fill-opacity="1" d="M 1497.839844 1046.128906 L 868.222656 2486.011719 L 1497.839844 2486.011719 L 1497.839844 1046.128906 "/>
<path fill-rule="evenodd" fill="rgb(79.296875%, 90.625%, 89.451599%)" fill-opacity="1" d="M 1310.230469 1475.191406 L 1497.839844 1046.128906 L 1723.109375 1561.289062 L 1603.410156 1473.949219 L 1497.460938 1613.898438 L 1418.050781 1442.960938 L 1332.179688 1553.03125 L 1310.230469 1475.191406 "/>
<path fill-rule="evenodd" fill="rgb(62.304688%, 78.709412%, 81.639099%)" fill-opacity="1" d="M 1497.460938 1613.898438 L 1497.839844 1046.128906 L 1723.109375 1561.289062 L 1603.410156 1473.949219 L 1497.460938 1613.898438 "/>
<path fill-rule="evenodd" fill="rgb(92.96875%, 48.997498%, 39.598083%)" fill-opacity="1" d="M 1829.859375 764.289062 L 1608.519531 764.289062 L 1608.519531 938.800781 L 1829.859375 938.800781 L 1780.769531 851.539062 L 1829.859375 764.289062 "/>
<path fill-rule="evenodd" fill="rgb(91.992188%, 40.893555%, 30.004883%)" fill-opacity="1" d="M 1608.519531 938.800781 L 1608.519531 877.609375 L 1719.191406 877.609375 L 1608.519531 938.800781 "/>
<path fill-rule="evenodd" fill="rgb(96.484375%, 60.742188%, 43.089294%)" fill-opacity="1" d="M 1719.191406 703.089844 L 1506.25 703.089844 L 1506.25 877.609375 L 1719.191406 877.609375 L 1719.191406 703.089844 "/>
<path fill-rule="evenodd" fill="rgb(14.109802%, 22.705078%, 61.521912%)" fill-opacity="1" d="M 634.222656 2492.179688 C 634.222656 2496.480469 628.878906 2492.179688 624.386719 2492.179688 C 589.480469 2452.6875 511.152344 2359.996094 446.890625 2254.46875 C 408.007812 2190.621094 374.28125 2122.074219 358.378906 2057.761719 C 358.097656 2056.628906 358.785156 2055.480469 359.917969 2055.195312 C 361.050781 2054.914062 362.199219 2055.601562 362.480469 2056.734375 C 378.660156 2120.523438 412.601562 2188.390625 451.605469 2251.578125 C 519.132812 2360.976562 601.859375 2456.328125 634.222656 2492.179688 "/>
<path fill-rule="evenodd" fill="rgb(3.100586%, 64.256287%, 86.71875%)" fill-opacity="1" d="M 626.820312 2492.179688 C 626.820312 2492.179688 661.925781 2448.234375 642.972656 2399.324219 C 624.019531 2350.417969 600.742188 2442.410156 626.820312 2492.179688 "/>
<path fill-rule="evenodd" fill="rgb(3.100586%, 64.256287%, 86.71875%)" fill-opacity="1" d="M 576.246094 2429.933594 C 576.246094 2429.933594 618.136719 2351.714844 593.992188 2326.566406 C 569.847656 2301.421875 559.480469 2378.695312 576.246094 2429.933594 "/>
<path fill-rule="evenodd" fill="rgb(3.100586%, 64.256287%, 86.71875%)" fill-opacity="1" d="M 531.171875 2372.484375 C 531.171875 2372.484375 571.085938 2311.660156 555.289062 2285.945312 C 539.492188 2260.234375 513.230469 2307.726562 531.171875 2372.484375 "/>
<path fill-rule="evenodd" fill="rgb(3.100586%, 64.256287%, 86.71875%)" fill-opacity="1" d="M 496.949219 2325.472656 C 496.949219 2325.472656 538.742188 2268.238281 514.929688 2238.757812 C 491.121094 2209.277344 477.898438 2272.925781 496.949219 2325.472656 "/>
<path fill-rule="evenodd" fill="rgb(3.100586%, 64.256287%, 86.71875%)" fill-opacity="1" d="M 457.015625 2265.527344 C 457.015625 2265.527344 494.191406 2219.582031 477.238281 2189.820312 C 460.28125 2160.0625 450.226562 2224.871094 457.015625 2265.527344 "/>
<path fill-rule="evenodd" fill="rgb(3.100586%, 64.256287%, 86.71875%)" fill-opacity="1" d="M 426.757812 2214.707031 C 426.757812 2214.707031 475.269531 2154.855469 451.398438 2127.257812 C 427.527344 2099.65625 425.132812 2190.054688 426.757812 2214.707031 "/>
<path fill-rule="evenodd" fill="rgb(3.100586%, 64.256287%, 86.71875%)" fill-opacity="1" d="M 390.070312 2137.613281 C 390.070312 2137.613281 437.3125 2079.550781 418.933594 2053.394531 C 400.554688 2027.234375 389.878906 2116.949219 390.070312 2137.613281 "/>
<path fill-rule="evenodd" fill="rgb(3.100586%, 64.256287%, 86.71875%)" fill-opacity="1" d="M 364.234375 2071.378906 C 364.234375 2071.378906 391.945312 2005.582031 362.714844 1984.109375 C 333.484375 1962.628906 337.164062 2045.59375 364.234375 2071.378906 "/>
<path fill-rule="evenodd" fill="rgb(3.100586%, 64.256287%, 86.71875%)" fill-opacity="1" d="M 390.070312 2137.613281 C 390.070312 2137.613281 328.371094 2084.089844 311.355469 2104.097656 C 294.339844 2124.109375 366.40625 2153.769531 390.070312 2137.613281 "/>
<path fill-rule="evenodd" fill="rgb(3.100586%, 64.256287%, 86.71875%)" fill-opacity="1" d="M 426.757812 2214.707031 C 426.757812 2214.707031 339.699219 2160.703125 334.992188 2195.546875 C 330.28125 2230.386719 403.617188 2240.714844 426.757812 2214.707031 "/>
<path fill-rule="evenodd" fill="rgb(3.100586%, 64.256287%, 86.71875%)" fill-opacity="1" d="M 457.015625 2265.527344 C 457.015625 2265.527344 371.585938 2240.640625 371.667969 2273.179688 C 371.746094 2305.71875 430.167969 2289.058594 457.015625 2265.527344 "/>
<path fill-rule="evenodd" fill="rgb(3.100586%, 64.256287%, 86.71875%)" fill-opacity="1" d="M 496.945312 2325.457031 C 496.945312 2325.457031 433.421875 2318.988281 419.875 2341.34375 C 406.324219 2363.699219 460.300781 2364.730469 496.945312 2325.457031 "/>
<path fill-rule="evenodd" fill="rgb(3.100586%, 64.256287%, 86.71875%)" fill-opacity="1" d="M 531.171875 2372.484375 C 531.171875 2372.484375 453.800781 2375.738281 443.3125 2405.3125 C 432.820312 2434.886719 517.074219 2404.625 531.171875 2372.484375 "/>
<path fill-rule="evenodd" fill="rgb(3.100586%, 64.256287%, 86.71875%)" fill-opacity="1" d="M 576.246094 2429.933594 C 576.246094 2429.933594 504.683594 2434.058594 488.90625 2461.769531 C 473.125 2489.480469 551.691406 2486.527344 576.246094 2429.933594 "/>
<path fill-rule="evenodd" fill="rgb(96.484375%, 60.742188%, 43.089294%)" fill-opacity="1" d="M 561.992188 2060.863281 C 535.242188 2021.398438 540.667969 2008.6875 540.667969 2008.6875 C 540.667969 2008.6875 512.636719 2038.984375 486.054688 2126.527344 L 518.472656 2141.535156 L 482.015625 2140.285156 C 474.671875 2168.339844 469.65625 2199.511719 469.617188 2232.390625 C 469.574219 2267.96875 474.605469 2305.058594 485.117188 2339.976562 L 541.304688 2337.242188 L 494.964844 2368.023438 C 515.285156 2418.234375 548.195312 2461.199219 595.03125 2484.339844 C 643.601562 2484.828125 741.523438 2491.273438 746.691406 2484.996094 C 765.585938 2462.058594 806.617188 2400.023438 779.328125 2319.417969 L 732.25 2325.761719 L 775.363281 2308.78125 C 762.4375 2276.996094 738.699219 2242.570312 698.90625 2206.6875 C 684.640625 2193.820312 671.644531 2181.734375 659.824219 2170.402344 L 628.730469 2179.042969 L 650.050781 2160.945312 C 608.210938 2120.066406 582.179688 2089.382812 566.03125 2066.679688 L 555.65625 2072.121094 L 561.992188 2060.863281 "/>
<path fill-rule="evenodd" fill="#f5f5f5" fill-opacity="1" d="M 740.984375 2482.582031 C 741.675781 2485.535156 732.125 2491.1875 730.550781 2484.128906 C 727.035156 2468.398438 718.371094 2436.609375 699.074219 2395.34375 C 686.238281 2367.902344 668.757812 2336.292969 644.945312 2302.445312 C 614.902344 2259.355469 569.269531 2195.546875 545.511719 2132.589844 C 528.8125 2088.328125 522.894531 2044.511719 540.667969 2008.6875 C 524.066406 2044.710938 531.113281 2088.03125 548.765625 2131.570312 C 573.929688 2193.628906 620.609375 2256.109375 651.425781 2298.304688 C 676.078125 2332.355469 694.3125 2364.207031 707.699219 2391.917969 C 727.925781 2433.792969 737.164062 2466.25 740.984375 2482.582031 "/>
<path fill-rule="evenodd" fill="rgb(62.304688%, 78.709412%, 81.639099%)" fill-opacity="1" d="M 919.394531 2484.808594 C 894.503906 2488.875 844.382812 2483.085938 792.515625 2485.070312 C 736.871094 2466.683594 673.847656 2436.609375 661.945312 2392.617188 C 643.175781 2323.257812 777.234375 2422.433594 769.058594 2374.625 C 760.878906 2326.816406 636.175781 2262.667969 650.527344 2222.984375 C 664.882812 2183.296875 751.546875 2267.46875 767.71875 2247.246094 C 783.890625 2227.023438 687.871094 2129.460938 715.007812 2081.304688 C 742.144531 2033.144531 762.453125 2115.808594 794.535156 2178.753906 C 826.617188 2241.699219 861.898438 2154.574219 901.296875 2164.457031 C 955.011719 2177.929688 852.855469 2289.476562 880.632812 2333.398438 C 906.242188 2373.894531 972.28125 2208.582031 986.925781 2317.691406 C 998.5625 2404.367188 953.914062 2457.445312 919.394531 2484.808594 "/>
<path fill-rule="evenodd" fill="#f5f5f5" fill-opacity="1" d="M 859.496094 2452.59375 C 850.554688 2451.644531 814.410156 2447.4375 779.390625 2438.121094 C 759.949219 2432.945312 740.859375 2426.207031 726.984375 2417.558594 C 726.574219 2417.296875 726.058594 2417.390625 725.832031 2417.765625 C 725.609375 2418.140625 725.761719 2418.660156 726.171875 2418.921875 C 740.070312 2427.921875 759.296875 2435.109375 778.910156 2440.703125 C 816.304688 2451.371094 855.101562 2456.25 860.859375 2456.9375 C 864.355469 2468.074219 867.402344 2477.851562 869.886719 2485.835938 C 869.261719 2486.707031 875.640625 2490.640625 874.148438 2485.960938 C 870.292969 2473.863281 865.039062 2457.445312 858.859375 2438.320312 C 862.539062 2435.460938 893.347656 2411.222656 919.179688 2380.941406 C 931.738281 2366.222656 943.121094 2350.082031 949.65625 2334.277344 C 949.828125 2333.871094 949.613281 2333.367188 949.179688 2333.15625 C 948.742188 2332.945312 948.25 2333.101562 948.078125 2333.507812 C 941.3125 2349.007812 929.726562 2364.753906 917.007812 2379.078125 C 892.878906 2406.253906 864.65625 2428.296875 857.402344 2433.808594 C 845.15625 2395.941406 829.566406 2348.34375 814.09375 2302.722656 C 813.382812 2300.632812 812.675781 2298.546875 811.964844 2296.464844 C 812.261719 2296.332031 812.519531 2296.128906 812.71875 2295.851562 L 877.59375 2202.417969 C 877.847656 2202.0625 877.734375 2201.539062 877.34375 2201.253906 C 876.949219 2200.964844 876.425781 2201.019531 876.171875 2201.378906 L 810.285156 2291.535156 C 792.957031 2240.761719 776.121094 2193.6875 764.660156 2166.859375 C 764.476562 2166.421875 763.976562 2166.179688 763.546875 2166.3125 C 763.117188 2166.449219 762.917969 2166.914062 763.101562 2167.351562 C 775.179688 2196.171875 793.261719 2248.308594 811.484375 2303.308594 C 813.4375 2309.203125 815.394531 2315.132812 817.339844 2321.054688 C 807.507812 2316.492188 768.976562 2298.375 739.945312 2281.5 C 725.808594 2273.28125 713.929688 2265.386719 708.808594 2259.5 C 708.496094 2259.132812 707.957031 2259.050781 707.613281 2259.320312 C 707.265625 2259.59375 707.238281 2260.109375 707.554688 2260.480469 C 712.648438 2266.574219 724.574219 2274.890625 738.824219 2283.542969 C 772.140625 2303.773438 818.175781 2325.933594 818.175781 2325.933594 C 818.449219 2326.0625 818.734375 2326.136719 819.011719 2326.152344 C 834.089844 2372.167969 848.703125 2418.21875 859.496094 2452.59375 "/>
<path fill-rule="evenodd" fill="rgb(79.296875%, 90.625%, 89.451599%)" fill-opacity="1" d="M 987.824219 2446.40625 C 944.671875 2391.636719 792.195312 2004.800781 884.09375 1976.898438 C 939.082031 1960.210938 913.660156 2209.410156 1006.300781 2431.996094 C 1048.75 2533.988281 992.660156 2452.539062 987.824219 2446.40625 "/>
<path fill-rule="evenodd" fill="rgb(62.304688%, 78.709412%, 81.639099%)" fill-opacity="1" d="M 1022.589844 2483.671875 C 1022.589844 2483.671875 968.507812 2399.488281 927.648438 2238.046875 C 909.449219 2166.128906 893.878906 2078.90625 886.863281 1976.980469 C 886.835938 1976.519531 886.433594 1976.160156 885.96875 1976.199219 C 885.507812 1976.230469 885.15625 1976.628906 885.183594 1977.089844 C 891.703125 2079.214844 906.875 2166.652344 924.746094 2238.773438 C 964.992188 2401.167969 1018.960938 2485.988281 1018.960938 2485.988281 C 1019.601562 2486.988281 1020.941406 2487.28125 1021.941406 2486.640625 C 1022.941406 2486 1023.230469 2484.671875 1022.589844 2483.671875 "/>
<path fill-rule="evenodd" fill="rgb(96.484375%, 60.742188%, 43.089294%)" fill-opacity="1" d="M 2495.820312 2454.46875 C 2548.621094 2403.1875 2762.121094 2019.71875 2669.859375 1977.710938 C 2614.660156 1952.570312 2606.488281 2216.851562 2478.511719 2436.8125 C 2419.859375 2537.605469 2489.910156 2460.210938 2495.820312 2454.46875 "/>
<path fill-rule="evenodd" fill="#f5f5f5" fill-opacity="1" d="M 2454.25 2488.605469 C 2454.25 2488.605469 2522.578125 2408.074219 2587.859375 2244.859375 C 2616.929688 2172.15625 2645.390625 2083.066406 2666.949219 1977.410156 C 2667.050781 1976.921875 2667.519531 1976.609375 2668 1976.710938 C 2668.480469 1976.808594 2668.789062 1977.269531 2668.699219 1977.761719 C 2647.628906 2083.695312 2619.558594 2173.0625 2590.789062 2246.027344 C 2526.03125 2410.320312 2457.71875 2491.535156 2457.71875 2491.535156 C 2456.910156 2492.496094 2455.480469 2492.617188 2454.519531 2491.808594 C 2453.558594 2490.996094 2453.441406 2489.5625 2454.25 2488.605469 "/>
<path fill-rule="evenodd" fill="rgb(3.100586%, 64.256287%, 86.71875%)" fill-opacity="1" d="M 2507.371094 2049.738281 C 2539.910156 2010.832031 2535.53125 1996.800781 2535.53125 1996.800781 C 2535.53125 1996.800781 2561.949219 2031.867188 2580.699219 2127.371094 L 2544.78125 2139.78125 L 2583.5 2142.367188 C 2588.269531 2172.851562 2590.230469 2206.378906 2586.75 2241.183594 C 2582.980469 2278.839844 2573.679688 2317.558594 2558.808594 2353.390625 L 2499.640625 2344.46875 L 2545.378906 2382.019531 C 2522.351562 2425.664062 2490.109375 2462.699219 2448.628906 2484.664062 C 2398.738281 2484.664062 2354.949219 2489.949219 2274.570312 2489.949219 C 2274.570312 2489.949219 2201.828125 2405.015625 2249.621094 2300.089844 L 2298.769531 2311.847656 L 2254.960938 2289.253906 C 2272.050781 2257 2300.871094 2223.105469 2346.828125 2189.394531 C 2363.308594 2177.304688 2378.359375 2165.910156 2392.078125 2155.183594 L 2424.058594 2167.660156 L 2403.441406 2146.21875 C 2452.101562 2107.441406 2482.949219 2077.757812 2502.46875 2055.460938 L 2512.871094 2062.332031 L 2507.371094 2049.738281 "/>
<path fill-rule="evenodd" fill="#f5f5f5" fill-opacity="1" d="M 2280.179688 2490.9375 C 2280.179688 2490.9375 2290.429688 2449.324219 2326.429688 2389.046875 C 2342.949219 2361.382812 2364.839844 2329.800781 2393.671875 2296.527344 C 2430.089844 2254.144531 2485.230469 2191.503906 2517.121094 2127.417969 C 2539.539062 2082.359375 2550.5 2036.621094 2535.53125 1996.800781 C 2549.238281 2036.707031 2537.140625 2081.800781 2513.789062 2125.988281 C 2480.5 2188.976562 2424.398438 2250.097656 2387.261719 2291.453125 C 2357.519531 2324.847656 2334.800781 2356.605469 2317.660156 2384.496094 C 2287.078125 2434.28125 2274.121094 2471.800781 2270.269531 2484.382812 C 2271.871094 2487.457031 2274.570312 2489.949219 2274.570312 2489.949219 C 2274.570312 2489.949219 2277.421875 2491.035156 2279.890625 2491.8125 C 2280.011719 2491.53125 2280.109375 2491.242188 2280.179688 2490.9375 "/>
<path fill-rule="evenodd" fill="rgb(62.304688%, 78.709412%, 81.639099%)" fill-opacity="1" d="M 2006.351562 2473.585938 C 2006.351562 2473.585938 2098.789062 2337.382812 2085.601562 2198.800781 C 2080.039062 2140.328125 2055.609375 2081.453125 1997.429688 2032.234375 C 1996.550781 2031.5 1996.441406 2030.1875 1997.179688 2029.3125 C 1997.910156 2028.4375 1999.21875 2028.320312 2000.101562 2029.058594 C 2059.71875 2078.835938 2084.941406 2138.714844 2091.011719 2198.265625 C 2105.308594 2338.828125 2012.441406 2477.6875 2012.441406 2477.6875 C 2011.308594 2479.371094 2009.03125 2479.816406 2007.351562 2478.683594 C 2005.671875 2477.550781 2005.21875 2475.265625 2006.351562 2473.585938 "/>
<path fill-rule="evenodd" fill="rgb(62.304688%, 78.709412%, 81.639099%)" fill-opacity="1" d="M 2008.21875 2470.246094 C 2008.21875 2470.246094 2002.71875 2460.339844 1993.410156 2446.65625 C 1990.25 2442.015625 1986.628906 2437.027344 1982.789062 2431.695312 C 1979.929688 2427.742188 1976.910156 2423.667969 1973.851562 2419.46875 C 1970.929688 2415.457031 1968.050781 2411.320312 1964.921875 2407.269531 C 1958.238281 2398.640625 1951.101562 2390.320312 1942.441406 2383.542969 C 1941.769531 2383.125 1941.558594 2382.234375 1941.980469 2381.558594 C 1942.390625 2380.878906 1943.28125 2380.671875 1943.960938 2381.089844 C 1954.410156 2386.046875 1963.960938 2392.59375 1972.480469 2400.277344 C 1975.949219 2403.40625 1979.171875 2406.710938 1982.160156 2410.160156 C 1984.191406 2412.507812 1986.101562 2414.917969 1987.828125 2417.398438 C 1992.449219 2424.0625 1996.199219 2430.851562 1999.230469 2437.210938 C 2007.808594 2455.1875 2010.921875 2469.21875 2010.921875 2469.21875 C 2011.199219 2469.964844 2010.828125 2470.796875 2010.078125 2471.082031 C 2009.339844 2471.363281 2008.5 2470.988281 2008.21875 2470.246094 "/>
<path fill-rule="evenodd" fill="rgb(62.304688%, 78.709412%, 81.639099%)" fill-opacity="1" d="M 2022.359375 2454.261719 C 2022.359375 2454.261719 2021.859375 2442.550781 2013.128906 2424.164062 C 2010.53125 2418.695312 2007.179688 2412.746094 2003.039062 2406.113281 C 2000.5 2402.042969 1997.589844 2397.8125 1994.519531 2393.21875 C 1991.789062 2389.15625 1988.988281 2384.816406 1985.839844 2380.304688 C 1981.621094 2374.273438 1977.050781 2367.945312 1971.691406 2361.277344 C 1966.929688 2355.351562 1961.929688 2349.242188 1956.039062 2342.914062 C 1963.429688 2347.578125 1970.039062 2352.085938 1976.101562 2356.824219 C 1980.640625 2360.378906 1984.71875 2363.933594 1988.519531 2367.535156 C 1992.75 2371.550781 1996.539062 2375.519531 1999.871094 2379.539062 C 2002.320312 2382.5 2004.511719 2385.476562 2006.429688 2388.449219 C 2009.671875 2393.464844 2012.21875 2398.40625 2014.328125 2403.113281 C 2015.941406 2406.714844 2017.238281 2410.167969 2018.308594 2413.503906 C 2021.410156 2423.191406 2022.710938 2431.367188 2023.148438 2437.914062 C 2023.871094 2448.46875 2022.359375 2454.261719 2022.359375 2454.261719 "/>
<path fill-rule="evenodd" fill="rgb(62.304688%, 78.709412%, 81.639099%)" fill-opacity="1" d="M 2039.570312 2421.535156 C 2039.570312 2421.535156 2036.21875 2405.570312 2024.980469 2384.929688 C 2023.398438 2382.03125 2021.691406 2379.070312 2019.871094 2375.96875 C 2017.398438 2371.777344 2014.609375 2367.5 2011.628906 2363.035156 C 2009.789062 2360.28125 2007.921875 2357.449219 2005.941406 2354.574219 C 2003.128906 2350.480469 2000.21875 2346.28125 1996.890625 2342.101562 C 1993.738281 2338.144531 1990.421875 2334.210938 1986.699219 2330.265625 C 1981.460938 2324.703125 1975.839844 2319.253906 1969.210938 2313.992188 C 1977.128906 2317.441406 1984.210938 2321.1875 1990.730469 2325.464844 C 1995.511719 2328.601562 1999.808594 2331.945312 2003.839844 2335.453125 C 2008.179688 2339.242188 2012.078125 2343.160156 2015.539062 2347.25 C 2017.988281 2350.152344 2020.191406 2353.140625 2022.128906 2356.175781 C 2025.269531 2361.078125 2027.78125 2366.050781 2029.871094 2370.886719 C 2031.410156 2374.421875 2032.691406 2377.863281 2033.730469 2381.238281 C 2040.890625 2404.441406 2039.570312 2421.535156 2039.570312 2421.535156 "/>
<path fill-rule="evenodd" fill="rgb(62.304688%, 78.709412%, 81.639099%)" fill-opacity="1" d="M 2054.179688 2389.003906 C 2054.179688 2389.003906 2049.679688 2373.210938 2037.710938 2353.65625 C 2036 2350.867188 2034.171875 2348.027344 2032.21875 2345.070312 C 2029.570312 2341.035156 2026.601562 2336.960938 2023.449219 2332.738281 C 2021.5 2330.117188 2019.5 2327.429688 2017.398438 2324.71875 C 2014.390625 2320.835938 2011.289062 2316.878906 2007.761719 2313.011719 C 2004.390625 2309.316406 2000.859375 2305.691406 1996.898438 2302.128906 C 1991.289062 2297.066406 1985.28125 2292.222656 1978.21875 2287.765625 C 1986.390625 2290.292969 1993.710938 2293.320312 2000.519531 2297.007812 C 2005.5 2299.707031 2010.011719 2302.695312 2014.25 2305.90625 C 2018.78125 2309.34375 2022.890625 2312.984375 2026.558594 2316.859375 C 2029.148438 2319.585938 2031.5 2322.425781 2033.578125 2325.339844 C 2036.921875 2329.996094 2039.648438 2334.792969 2041.960938 2339.5 C 2043.640625 2342.90625 2045.070312 2346.242188 2046.269531 2349.539062 C 2054.328125 2371.785156 2054.179688 2389.003906 2054.179688 2389.003906 "/>
<path fill-rule="evenodd" fill="rgb(62.304688%, 78.709412%, 81.639099%)" fill-opacity="1" d="M 2069.808594 2346.183594 C 2069.808594 2346.183594 2062.679688 2332.019531 2047.679688 2314.789062 C 2045.558594 2312.363281 2043.320312 2309.890625 2040.960938 2307.308594 C 2037.75 2303.796875 2034.230469 2300.265625 2030.550781 2296.578125 C 2028.261719 2294.292969 2025.941406 2291.933594 2023.519531 2289.554688 C 2020.058594 2286.140625 2016.53125 2282.648438 2012.621094 2279.253906 C 2008.890625 2276.007812 2005.03125 2272.828125 2000.800781 2269.71875 C 1994.78125 2265.273438 1988.460938 2261.039062 1981.238281 2257.214844 C 1989.390625 2259.03125 1996.828125 2261.324219 2003.890625 2264.261719 C 2009 2266.386719 2013.71875 2268.800781 2018.230469 2271.4375 C 2023.03125 2274.25 2027.46875 2277.265625 2031.550781 2280.539062 C 2034.421875 2282.839844 2037.078125 2285.269531 2039.5 2287.792969 C 2043.398438 2291.847656 2046.738281 2296.085938 2049.699219 2300.273438 C 2051.851562 2303.320312 2053.761719 2306.328125 2055.441406 2309.320312 C 2066.960938 2329.839844 2069.808594 2346.183594 2069.808594 2346.183594 "/>
<path fill-rule="evenodd" fill="rgb(62.304688%, 78.709412%, 81.639099%)" fill-opacity="1" d="M 2078.738281 2316.617188 C 2078.738281 2316.617188 2071.878906 2302.671875 2056.960938 2286.230469 C 2054.859375 2283.910156 2052.628906 2281.570312 2050.269531 2279.117188 C 2047.070312 2275.796875 2043.550781 2272.484375 2039.839844 2269.027344 C 2037.550781 2266.894531 2035.210938 2264.695312 2032.769531 2262.476562 C 2029.289062 2259.3125 2025.710938 2256.070312 2021.738281 2252.949219 C 2017.96875 2249.984375 2014.070312 2247.085938 2009.78125 2244.273438 C 2003.710938 2240.292969 1997.328125 2236.523438 1990.03125 2233.1875 C 1998.140625 2234.449219 2005.53125 2236.222656 2012.539062 2238.652344 C 2017.691406 2240.429688 2022.421875 2242.527344 2026.941406 2244.859375 C 2031.808594 2247.367188 2036.289062 2250.109375 2040.410156 2253.132812 C 2043.320312 2255.269531 2046.019531 2257.546875 2048.480469 2259.933594 C 2052.449219 2263.773438 2055.839844 2267.835938 2058.828125 2271.867188 C 2061.011719 2274.808594 2062.941406 2277.714844 2064.628906 2280.621094 C 2076.171875 2300.46875 2078.738281 2316.617188 2078.738281 2316.617188 "/>
<path fill-rule="evenodd" fill="rgb(62.304688%, 78.709412%, 81.639099%)" fill-opacity="1" d="M 2088.03125 2260.28125 C 2088.03125 2260.28125 2079.359375 2249.421875 2063.128906 2238.015625 C 2060.851562 2236.410156 2058.460938 2234.820312 2055.929688 2233.148438 C 2052.519531 2230.890625 2048.820312 2228.710938 2044.941406 2226.429688 C 2042.550781 2225.019531 2040.109375 2223.550781 2037.570312 2222.085938 C 2033.949219 2219.988281 2030.261719 2217.828125 2026.21875 2215.855469 C 2022.371094 2213.976562 2018.441406 2212.179688 2014.171875 2210.527344 C 2008.101562 2208.1875 2001.851562 2206.085938 1994.800781 2204.546875 C 2002.179688 2203.871094 2008.960938 2203.8125 2015.601562 2204.425781 C 2020.480469 2204.878906 2025.050781 2205.71875 2029.488281 2206.8125 C 2034.289062 2207.992188 2038.78125 2209.476562 2043 2211.300781 C 2045.988281 2212.589844 2048.808594 2214.0625 2051.429688 2215.6875 C 2055.660156 2218.308594 2059.410156 2221.25 2062.78125 2224.261719 C 2065.238281 2226.453125 2067.449219 2228.675781 2069.46875 2230.9375 C 2074.949219 2237.085938 2078.96875 2242.921875 2081.898438 2247.882812 C 2086.308594 2255.324219 2088.03125 2260.28125 2088.03125 2260.28125 "/>
<path fill-rule="evenodd" fill="rgb(62.304688%, 78.709412%, 81.639099%)" fill-opacity="1" d="M 2089.371094 2213.375 C 2089.371094 2213.375 2081.699219 2207.421875 2068.03125 2200.582031 C 2063.660156 2198.394531 2058.75 2196.234375 2053.28125 2193.925781 C 2049.78125 2192.449219 2046.050781 2191.042969 2042.179688 2189.445312 C 2038.621094 2187.976562 2035 2186.324219 2031.128906 2184.769531 C 2025.699219 2182.585938 2020.109375 2180.410156 2013.921875 2178.539062 C 2008.101562 2176.777344 2002.238281 2175.113281 1995.679688 2173.933594 C 2002.410156 2172.898438 2008.628906 2172.34375 2014.851562 2172.339844 C 2019.359375 2172.339844 2023.609375 2172.664062 2027.808594 2173.195312 C 2032.308594 2173.769531 2036.570312 2174.589844 2040.640625 2175.722656 C 2043.519531 2176.527344 2046.269531 2177.496094 2048.871094 2178.621094 C 2053.070312 2180.445312 2056.890625 2182.589844 2060.378906 2184.8125 C 2062.949219 2186.449219 2065.300781 2188.117188 2067.480469 2189.859375 C 2082.671875 2202.0625 2089.371094 2213.375 2089.371094 2213.375 "/>
<path fill-rule="evenodd" fill="rgb(62.304688%, 78.709412%, 81.639099%)" fill-opacity="1" d="M 2085.21875 2176.488281 C 2085.21875 2176.488281 2079.578125 2173.714844 2069.300781 2170.371094 C 2065.558594 2169.15625 2061.328125 2168.066406 2056.5 2166.683594 C 2052.609375 2165.570312 2048.390625 2164.515625 2043.910156 2163.183594 C 2041.960938 2162.605469 2040.011719 2161.863281 2037.980469 2161.148438 C 2035.070312 2160.125 2032.140625 2159.050781 2029.011719 2157.960938 C 2021.699219 2155.410156 2014.238281 2152.8125 2005.5 2151.007812 C 2011 2149.972656 2015.988281 2149.242188 2021.128906 2148.90625 C 2024.820312 2148.667969 2028.269531 2148.679688 2031.730469 2148.835938 C 2035.441406 2149 2038.929688 2149.34375 2042.320312 2149.953125 C 2044.71875 2150.386719 2047.019531 2150.960938 2049.199219 2151.675781 C 2052.761719 2152.847656 2056.011719 2154.304688 2059.011719 2155.824219 C 2061.238281 2156.957031 2063.269531 2158.113281 2065.171875 2159.355469 C 2078.929688 2168.328125 2085.21875 2176.488281 2085.21875 2176.488281 "/>
<path fill-rule="evenodd" fill="rgb(62.304688%, 78.709412%, 81.639099%)" fill-opacity="1" d="M 2077.539062 2145.609375 C 2077.539062 2145.609375 2068.671875 2143.152344 2052.960938 2140.847656 C 2050.898438 2140.542969 2048.769531 2140.238281 2046.5 2139.84375 C 2043.480469 2139.320312 2040.289062 2138.839844 2036.929688 2138.140625 C 2034.878906 2137.71875 2032.789062 2137.1875 2030.648438 2136.605469 C 2027.589844 2135.769531 2024.53125 2134.769531 2021.238281 2133.808594 C 2018.121094 2132.898438 2015.03125 2131.964844 2011.699219 2131.007812 C 2006.921875 2129.636719 2002.269531 2128.238281 1997.03125 2127.007812 C 2002.398438 2126.023438 2007.261719 2125.234375 2012.28125 2124.765625 C 2015.859375 2124.433594 2019.210938 2124.300781 2022.578125 2124.285156 C 2026.179688 2124.269531 2029.578125 2124.382812 2032.898438 2124.746094 C 2035.238281 2125 2037.5 2125.378906 2039.660156 2125.894531 C 2043.199219 2126.742188 2046.449219 2127.863281 2049.480469 2129.027344 C 2051.761719 2129.898438 2053.828125 2130.804688 2055.800781 2131.785156 C 2070.429688 2139.074219 2077.539062 2145.609375 2077.539062 2145.609375 "/>
<path fill-rule="evenodd" fill="rgb(62.304688%, 78.709412%, 81.639099%)" fill-opacity="1" d="M 2064.609375 2113.382812 C 2064.609375 2113.382812 2057.121094 2111.933594 2045.5 2110.285156 C 2043.890625 2110.054688 2042.289062 2109.824219 2040.558594 2109.5 C 2038.238281 2109.058594 2035.828125 2108.652344 2033.359375 2108.035156 C 2031.808594 2107.652344 2030.261719 2107.15625 2028.699219 2106.621094 C 2026.378906 2105.828125 2024.160156 2104.90625 2021.789062 2103.992188 C 2015.738281 2101.652344 2010.109375 2099.285156 2003.589844 2097.894531 C 2007.578125 2096.644531 2011.21875 2095.742188 2015.308594 2095.136719 C 2018.070312 2094.726562 2020.640625 2094.566406 2023.371094 2094.507812 C 2026.140625 2094.445312 2028.769531 2094.53125 2031.421875 2094.863281 C 2033.210938 2095.085938 2034.960938 2095.4375 2036.640625 2095.925781 C 2039.28125 2096.699219 2041.738281 2097.734375 2044.050781 2098.828125 C 2045.730469 2099.628906 2047.261719 2100.445312 2048.730469 2101.355469 C 2059.011719 2107.699219 2064.609375 2113.382812 2064.609375 2113.382812 "/>
<path fill-rule="evenodd" fill="rgb(62.304688%, 78.709412%, 81.639099%)" fill-opacity="1" d="M 2045.289062 2080.800781 C 2045.289062 2080.800781 2040.699219 2080.097656 2030.671875 2081.492188 C 2029.5 2081.65625 2028.339844 2081.871094 2027 2082 C 2025.308594 2082.164062 2023.539062 2082.4375 2021.578125 2082.503906 C 2020.410156 2082.542969 2019.199219 2082.480469 2017.941406 2082.378906 C 2016.121094 2082.230469 2014.339844 2081.921875 2012.320312 2081.621094 C 2007.609375 2080.914062 2003.21875 2079.902344 1997.359375 2079.425781 C 2000.328125 2077.488281 2002.660156 2076.011719 2005.460938 2074.570312 C 2007.488281 2073.523438 2009.28125 2072.789062 2011.238281 2072.0625 C 2013.359375 2071.277344 2015.300781 2070.703125 2017.300781 2070.324219 C 2018.738281 2070.054688 2020.140625 2069.933594 2021.480469 2069.957031 C 2023.769531 2070 2025.851562 2070.347656 2027.769531 2070.804688 C 2029.289062 2071.164062 2030.601562 2071.5625 2031.878906 2072.074219 C 2034.949219 2073.300781 2037.171875 2074.425781 2039.128906 2075.703125 C 2043.769531 2078.71875 2045.289062 2080.800781 2045.289062 2080.800781 "/>
<path fill-rule="evenodd" fill="rgb(62.304688%, 78.709412%, 81.639099%)" fill-opacity="1" d="M 2027.300781 2058.222656 C 2027.300781 2058.222656 2023.238281 2057.738281 2014.839844 2059.015625 C 2013.839844 2059.164062 2012.910156 2059.390625 2011.789062 2059.503906 C 2010.398438 2059.648438 2008.960938 2059.941406 2007.351562 2059.96875 C 2006.160156 2059.992188 2004.929688 2059.839844 2003.628906 2059.691406 C 2001.691406 2059.472656 1999.898438 2059.035156 1997.730469 2058.679688 C 1994.191406 2058.101562 1991.230469 2057.308594 1986.988281 2056.925781 C 1989.421875 2054.917969 1991.21875 2053.519531 1993.578125 2052.027344 C 1995.289062 2050.945312 1996.769531 2050.25 1998.460938 2049.5 C 2000.28125 2048.695312 2001.941406 2048.148438 2003.699219 2047.769531 C 2004.941406 2047.496094 2006.171875 2047.402344 2007.339844 2047.421875 C 2008.640625 2047.449219 2009.851562 2047.628906 2011.011719 2047.898438 C 2013.03125 2048.371094 2014.738281 2048.882812 2016.339844 2049.640625 C 2018.960938 2050.882812 2020.761719 2051.992188 2022.398438 2053.304688 C 2026.140625 2056.289062 2027.300781 2058.222656 2027.300781 2058.222656 "/>
<path fill-rule="evenodd" fill="rgb(62.304688%, 78.709412%, 81.639099%)" fill-opacity="1" d="M 2004.359375 2035.464844 C 2004.359375 2035.464844 2001.5 2034.117188 1992.371094 2034.882812 C 1991.398438 2034.960938 1990.46875 2035.125 1989.351562 2035.164062 C 1987.96875 2035.210938 1986.519531 2035.375 1984.890625 2035.289062 C 1983.929688 2035.242188 1982.941406 2035.082031 1981.910156 2034.878906 C 1980.410156 2034.578125 1978.988281 2034.109375 1977.328125 2033.609375 C 1973.421875 2032.433594 1970.058594 2030.988281 1965.050781 2029.679688 C 1967.75 2028.121094 1969.679688 2027.011719 1972.160156 2025.875 C 1973.960938 2025.050781 1975.460938 2024.53125 1977.160156 2023.992188 C 1979.019531 2023.40625 1980.660156 2023.023438 1982.371094 2022.816406 C 1983.601562 2022.664062 1984.789062 2022.671875 1985.910156 2022.785156 C 1987.171875 2022.914062 1988.339844 2023.191406 1989.421875 2023.535156 C 1991.421875 2024.164062 1993.058594 2024.792969 1994.539062 2025.636719 C 1997.171875 2027.136719 1998.851562 2028.359375 2000.289062 2029.800781 C 2003.949219 2033.433594 2004.359375 2035.464844 2004.359375 2035.464844 "/>
<path fill-rule="evenodd" fill="rgb(62.304688%, 78.709412%, 81.639099%)" fill-opacity="1" d="M 2012.050781 2042.515625 C 2012.050781 2042.515625 2011.621094 2037.855469 2009.710938 2029.5 C 2009.46875 2028.449219 2009.191406 2027.457031 2008.988281 2026.292969 C 2008.738281 2024.804688 2008.390625 2023.28125 2008.238281 2021.605469 C 2008.148438 2020.59375 2008.171875 2019.550781 2008.210938 2018.472656 C 2008.28125 2016.855469 2008.53125 2015.328125 2008.71875 2013.597656 C 2009.179688 2009.226562 2009.941406 2005.425781 2009.828125 2000.308594 C 2012.039062 2002.625 2013.609375 2004.441406 2015.300781 2006.839844 C 2016.488281 2008.53125 2017.300781 2010.058594 2018.160156 2011.796875 C 2019.070312 2013.617188 2019.71875 2015.316406 2020.210938 2017.140625 C 2020.550781 2018.394531 2020.730469 2019.648438 2020.769531 2020.871094 C 2020.820312 2022.882812 2020.578125 2024.753906 2020.210938 2026.519531 C 2019.929688 2027.867188 2019.621094 2029.027344 2019.171875 2030.199219 C 2018.160156 2032.894531 2017.238281 2034.859375 2016.148438 2036.714844 C 2013.730469 2040.835938 2012.050781 2042.515625 2012.050781 2042.515625 "/>
<path fill-rule="evenodd" fill="rgb(62.304688%, 78.709412%, 81.639099%)" fill-opacity="1" d="M 2033.578125 2065.519531 C 2033.578125 2065.519531 2034.148438 2058.90625 2033.898438 2048.0625 C 2033.871094 2046.617188 2033.820312 2045.183594 2033.851562 2043.605469 C 2033.890625 2041.523438 2033.851562 2039.355469 2034.019531 2037.074219 C 2034.121094 2035.671875 2034.320312 2034.246094 2034.558594 2032.789062 C 2034.910156 2030.640625 2035.410156 2028.554688 2035.859375 2026.296875 C 2036.988281 2020.695312 2038.269531 2015.433594 2038.589844 2009.082031 C 2040.539062 2012.515625 2042.03125 2015.511719 2043.359375 2018.980469 C 2044.289062 2021.402344 2044.910156 2023.648438 2045.480469 2026.058594 C 2046.070312 2028.5625 2046.460938 2030.9375 2046.621094 2033.363281 C 2046.730469 2035.027344 2046.691406 2036.667969 2046.511719 2038.25 C 2046.210938 2040.800781 2045.621094 2043.171875 2044.929688 2045.402344 C 2044.410156 2047.058594 2043.871094 2048.550781 2043.199219 2049.992188 C 2038.449219 2060.300781 2033.578125 2065.519531 2033.578125 2065.519531 "/>
<path fill-rule="evenodd" fill="rgb(62.304688%, 78.709412%, 81.639099%)" fill-opacity="1" d="M 2049.851562 2087.5 C 2049.851562 2087.5 2051.601562 2081.046875 2053.191406 2070.539062 C 2053.648438 2067.484375 2054.019531 2064.238281 2054.488281 2060.625 C 2054.761719 2058.539062 2054.949219 2056.386719 2055.328125 2054.164062 C 2055.800781 2051.429688 2056.398438 2048.621094 2057.019531 2045.714844 C 2057.910156 2041.492188 2058.988281 2037.335938 2059.679688 2032.742188 C 2060.390625 2028.015625 2061.089844 2023.523438 2061.128906 2018.410156 C 2063.269531 2022.671875 2064.878906 2026.605469 2066.140625 2030.914062 C 2067.03125 2033.953125 2067.578125 2036.84375 2068 2039.847656 C 2068.441406 2042.976562 2068.628906 2045.984375 2068.550781 2048.984375 C 2068.5 2051.054688 2068.28125 2053.078125 2067.898438 2055.023438 C 2067.289062 2058.128906 2066.359375 2061.023438 2065.308594 2063.730469 C 2064.539062 2065.710938 2063.738281 2067.519531 2062.820312 2069.242188 C 2056.449219 2081.171875 2049.851562 2087.5 2049.851562 2087.5 "/>
<path fill-rule="evenodd" fill="rgb(62.304688%, 78.709412%, 81.639099%)" fill-opacity="1" d="M 2070.929688 2127.433594 C 2070.929688 2127.433594 2075.75 2120.476562 2080.308594 2107.722656 C 2081.738281 2103.738281 2082.988281 2099.273438 2084.308594 2094.222656 C 2085.140625 2091.054688 2085.851562 2087.671875 2086.730469 2084.117188 C 2087.53125 2080.882812 2088.511719 2077.5625 2089.359375 2074 C 2090.53125 2069.046875 2091.710938 2063.9375 2092.558594 2058.230469 C 2093.328125 2052.953125 2094.070312 2047.660156 2094.308594 2041.683594 C 2096.308594 2047.472656 2097.808594 2052.753906 2098.820312 2058.117188 C 2099.570312 2062.101562 2099.960938 2065.847656 2100.160156 2069.574219 C 2100.378906 2073.65625 2100.300781 2077.507812 2099.910156 2081.222656 C 2099.621094 2083.894531 2099.140625 2086.457031 2098.488281 2088.886719 C 2097.410156 2092.882812 2095.960938 2096.519531 2094.371094 2099.839844 C 2093.179688 2102.316406 2091.929688 2104.5625 2090.578125 2106.65625 C 2086.820312 2112.492188 2083.070312 2116.871094 2079.710938 2120.191406 C 2074.558594 2125.285156 2070.929688 2127.433594 2070.929688 2127.433594 "/>
<path fill-rule="evenodd" fill="rgb(62.304688%, 78.709412%, 81.639099%)" fill-opacity="1" d="M 2081.300781 2158.683594 C 2081.300781 2158.683594 2086.929688 2151.738281 2094.21875 2140.710938 C 2096.660156 2137.03125 2099.191406 2133 2101.859375 2128.605469 C 2102.859375 2126.964844 2103.859375 2125.292969 2104.929688 2123.617188 C 2105.96875 2122.007812 2107.03125 2120.382812 2108.140625 2118.761719 C 2110.320312 2115.585938 2112.570312 2112.445312 2114.710938 2109.082031 C 2119.320312 2101.824219 2123.539062 2094.5 2125.949219 2085.804688 C 2126.550781 2091.433594 2126.511719 2096.710938 2125.820312 2102.164062 C 2125.351562 2105.917969 2124.519531 2109.453125 2123.480469 2113.015625 C 2122.421875 2116.648438 2121.121094 2120.101562 2119.53125 2123.414062 C 2118.449219 2125.664062 2117.21875 2127.808594 2115.859375 2129.8125 C 2113.730469 2132.949219 2111.351562 2135.765625 2108.921875 2138.347656 C 2107.191406 2140.199219 2105.449219 2141.875 2103.660156 2143.417969 C 2091.621094 2153.785156 2081.300781 2158.683594 2081.300781 2158.683594 "/>
<path fill-rule="evenodd" fill="rgb(62.304688%, 78.709412%, 81.639099%)" fill-opacity="1" d="M 2087.351562 2190.160156 C 2087.351562 2190.160156 2096.179688 2182.492188 2107.410156 2169.878906 C 2111.210938 2165.613281 2115.21875 2160.855469 2119.339844 2155.625 C 2120.890625 2153.660156 2122.449219 2151.648438 2124.058594 2149.617188 C 2125.621094 2147.660156 2127.191406 2145.675781 2128.808594 2143.679688 C 2131.960938 2139.792969 2135.128906 2135.851562 2138.140625 2131.621094 C 2144.5 2122.679688 2150.210938 2113.21875 2153.648438 2102.035156 C 2153.609375 2109.273438 2152.761719 2116.085938 2151.101562 2122.828125 C 2149.941406 2127.515625 2148.390625 2131.9375 2146.550781 2136.28125 C 2144.671875 2140.738281 2142.5 2144.964844 2140.019531 2148.949219 C 2138.328125 2151.667969 2136.480469 2154.246094 2134.5 2156.644531 C 2131.398438 2160.394531 2128.039062 2163.746094 2124.671875 2166.796875 C 2122.261719 2168.972656 2119.851562 2170.949219 2117.421875 2172.753906 C 2101.179688 2184.792969 2087.351562 2190.160156 2087.351562 2190.160156 "/>
<path fill-rule="evenodd" fill="rgb(62.304688%, 78.709412%, 81.639099%)" fill-opacity="1" d="M 2088.871094 2231.054688 C 2088.871094 2231.054688 2099.808594 2227.472656 2114.308594 2221.210938 C 2119.398438 2219.011719 2124.820312 2216.53125 2130.429688 2213.773438 C 2132.578125 2212.714844 2134.75 2211.621094 2136.949219 2210.554688 C 2139.101562 2209.507812 2141.261719 2208.457031 2143.429688 2207.421875 C 2147.789062 2205.339844 2152.078125 2203.261719 2156.160156 2200.832031 C 2165.550781 2195.246094 2173.648438 2188.710938 2178.378906 2179.164062 C 2176.910156 2188.300781 2172.800781 2196.277344 2166.78125 2203.441406 C 2162.878906 2208.085938 2158.261719 2212.175781 2153.109375 2215.726562 C 2149.371094 2218.308594 2145.351562 2220.546875 2141.199219 2222.355469 C 2136.988281 2224.1875 2132.660156 2225.53125 2128.410156 2226.640625 C 2122.878906 2228.089844 2117.589844 2229.042969 2112.660156 2229.691406 C 2098.75 2231.523438 2088.871094 2231.054688 2088.871094 2231.054688 "/>
<path fill-rule="evenodd" fill="rgb(62.304688%, 78.709412%, 81.639099%)" fill-opacity="1" d="M 2085.328125 2281.226562 C 2085.328125 2281.226562 2095.871094 2281.871094 2110.628906 2280.78125 C 2115.691406 2280.40625 2121.121094 2279.816406 2126.878906 2278.976562 C 2129.050781 2278.660156 2131.25 2278.304688 2133.480469 2277.980469 C 2135.640625 2277.664062 2137.828125 2277.339844 2140.03125 2277.023438 C 2144.371094 2276.410156 2148.710938 2275.773438 2153.089844 2274.738281 C 2162.46875 2272.523438 2171.53125 2269.328125 2179.839844 2262.921875 C 2176.199219 2268.425781 2172.070312 2272.914062 2167.261719 2276.8125 C 2163.859375 2279.566406 2160.261719 2281.777344 2156.460938 2283.746094 C 2152.589844 2285.753906 2148.601562 2287.34375 2144.5 2288.535156 C 2141.738281 2289.335938 2138.929688 2289.917969 2136.140625 2290.265625 C 2131.820312 2290.808594 2127.558594 2290.867188 2123.449219 2290.675781 C 2120.550781 2290.542969 2117.78125 2290.273438 2115.089844 2289.847656 C 2097.539062 2287.066406 2085.328125 2281.226562 2085.328125 2281.226562 "/>
<path fill-rule="evenodd" fill="rgb(62.304688%, 78.709412%, 81.639099%)" fill-opacity="1" d="M 2076.78125 2322.03125 C 2076.78125 2322.03125 2085.28125 2322.441406 2097.949219 2322.363281 C 2101.808594 2322.339844 2105.921875 2322.253906 2110.371094 2322.207031 C 2113.019531 2322.179688 2115.730469 2322.082031 2118.519531 2322.164062 C 2122.039062 2322.265625 2125.640625 2322.492188 2129.28125 2322.714844 C 2134.738281 2323.046875 2140.089844 2323.53125 2145.558594 2323.480469 C 2151.589844 2323.421875 2157.238281 2323.210938 2162.929688 2321.964844 C 2158.429688 2325.074219 2153.75 2327.550781 2148.480469 2329.605469 C 2145.03125 2330.953125 2141.558594 2331.953125 2137.929688 2332.804688 C 2134.320312 2333.648438 2130.71875 2334.265625 2127.058594 2334.582031 C 2124.621094 2334.792969 2122.179688 2334.851562 2119.78125 2334.734375 C 2116.050781 2334.554688 2112.441406 2334.027344 2108.988281 2333.378906 C 2106.519531 2332.914062 2104.199219 2332.371094 2101.941406 2331.726562 C 2086.789062 2327.386719 2076.78125 2322.03125 2076.78125 2322.03125 "/>
<path fill-rule="evenodd" fill="rgb(62.304688%, 78.709412%, 81.639099%)" fill-opacity="1" d="M 2088.109375 2257.335938 C 2088.109375 2257.335938 2100.5 2254.765625 2117.050781 2251.128906 C 2122.988281 2249.820312 2129.339844 2248.277344 2135.929688 2247.019531 C 2140.089844 2246.222656 2144.308594 2245.640625 2148.480469 2245.007812 C 2155.070312 2244 2161.390625 2243.160156 2167.210938 2241.683594 C 2174.648438 2239.800781 2180.941406 2237.582031 2185.519531 2233.832031 C 2181.628906 2240.101562 2174.820312 2245.511719 2166.058594 2250.105469 C 2161.21875 2252.648438 2155.929688 2254.824219 2150.289062 2256.539062 C 2146.28125 2257.757812 2142.128906 2258.714844 2137.980469 2259.328125 C 2133.75 2259.949219 2129.539062 2260.164062 2125.460938 2260.265625 C 2120.089844 2260.398438 2115.078125 2260.222656 2110.441406 2259.921875 C 2097.148438 2259.050781 2088.109375 2257.335938 2088.109375 2257.335938 "/>
<path fill-rule="evenodd" fill="rgb(62.304688%, 78.709412%, 81.639099%)" fill-opacity="1" d="M 2089.449219 2210.644531 C 2089.449219 2210.644531 2096.640625 2205.855469 2106.800781 2198.621094 C 2109.960938 2196.367188 2113.289062 2193.953125 2116.890625 2191.410156 C 2119.058594 2189.878906 2121.238281 2188.265625 2123.558594 2186.773438 C 2126.550781 2184.855469 2129.640625 2183.027344 2132.71875 2181.195312 C 2137.511719 2178.34375 2142.179688 2175.746094 2146.398438 2172.675781 C 2151.46875 2168.972656 2155.78125 2165.390625 2158.828125 2160.910156 C 2157.761719 2166.019531 2155.570312 2170.910156 2152.351562 2175.941406 C 2150.390625 2178.988281 2148.101562 2181.8125 2145.53125 2184.65625 C 2143.078125 2187.347656 2140.460938 2189.886719 2137.578125 2192.242188 C 2135.710938 2193.773438 2133.738281 2195.1875 2131.691406 2196.449219 C 2128.558594 2198.367188 2125.308594 2199.964844 2122.089844 2201.394531 C 2119.828125 2202.398438 2117.621094 2203.265625 2115.410156 2204.019531 C 2100.839844 2208.988281 2089.449219 2210.644531 2089.449219 2210.644531 "/>
<path fill-rule="evenodd" fill="rgb(62.304688%, 78.709412%, 81.639099%)" fill-opacity="1" d="M 2081.609375 2301.9375 C 2081.609375 2301.9375 2092.589844 2302.234375 2108.171875 2301.683594 C 2113.550781 2301.492188 2119.351562 2301.214844 2125.5 2300.84375 C 2127.839844 2300.703125 2130.210938 2300.554688 2132.621094 2300.457031 C 2134.960938 2300.359375 2137.320312 2300.28125 2139.699219 2300.246094 C 2144.441406 2300.175781 2149.148438 2300.15625 2153.871094 2299.894531 C 2164.71875 2299.292969 2174.988281 2297.972656 2184.03125 2293.679688 C 2179.359375 2298.109375 2174.019531 2301.679688 2167.898438 2304.660156 C 2163.960938 2306.574219 2159.871094 2308.074219 2155.558594 2309.363281 C 2151.351562 2310.625 2147.070312 2311.605469 2142.699219 2312.238281 C 2139.808594 2312.65625 2136.890625 2312.902344 2134.011719 2312.953125 C 2129.570312 2313.035156 2125.21875 2312.722656 2121.019531 2312.253906 C 2118.058594 2311.921875 2115.230469 2311.484375 2112.480469 2310.933594 C 2094.351562 2307.308594 2081.609375 2301.9375 2081.609375 2301.9375 "/>
<path fill-rule="evenodd" fill="rgb(62.304688%, 78.709412%, 81.639099%)" fill-opacity="1" d="M 2071.878906 2342.382812 C 2071.878906 2342.382812 2083.269531 2345.414062 2099.25 2348.683594 C 2104.859375 2349.828125 2110.921875 2350.996094 2117.289062 2352.121094 C 2119.738281 2352.558594 2122.21875 2352.988281 2124.710938 2353.46875 C 2127.160156 2353.941406 2129.621094 2354.425781 2132.058594 2354.949219 C 2137.011719 2356.003906 2141.871094 2357.066406 2146.730469 2357.816406 C 2158.449219 2359.621094 2169.398438 2360.066406 2178.800781 2356.175781 C 2171.949219 2361.769531 2163.261719 2365.074219 2153.339844 2366.664062 C 2147.351562 2367.625 2141.089844 2367.882812 2134.71875 2367.472656 C 2130.121094 2367.175781 2125.511719 2366.507812 2121.03125 2365.464844 C 2116.480469 2364.402344 2112.121094 2362.914062 2107.941406 2361.328125 C 2102.480469 2359.257812 2097.488281 2356.972656 2092.96875 2354.691406 C 2080.101562 2348.191406 2071.878906 2342.382812 2071.878906 2342.382812 "/>
<path fill-rule="evenodd" fill="rgb(62.304688%, 78.709412%, 81.639099%)" fill-opacity="1" d="M 2060.589844 2372.765625 C 2060.589844 2372.765625 2072.171875 2376.921875 2088.75 2381.578125 C 2094.519531 2383.199219 2100.789062 2384.867188 2107.429688 2386.5 C 2109.96875 2387.125 2112.550781 2387.746094 2115.140625 2388.417969 C 2117.679688 2389.074219 2120.230469 2389.742188 2122.78125 2390.449219 C 2127.878906 2391.859375 2132.941406 2393.269531 2138.058594 2394.386719 C 2149.910156 2396.972656 2161.378906 2398.355469 2172.148438 2395.894531 C 2165.929688 2399.363281 2159.121094 2401.59375 2151.671875 2402.855469 C 2146.898438 2403.664062 2142.039062 2403.964844 2137.039062 2403.949219 C 2132.179688 2403.9375 2127.308594 2403.589844 2122.460938 2402.847656 C 2119.25 2402.359375 2116.078125 2401.683594 2112.988281 2400.816406 C 2108.261719 2399.492188 2103.710938 2397.789062 2099.378906 2395.96875 C 2096.339844 2394.6875 2093.460938 2393.332031 2090.699219 2391.894531 C 2072.621094 2382.472656 2060.589844 2372.765625 2060.589844 2372.765625 "/>
<path fill-rule="evenodd" fill="rgb(62.304688%, 78.709412%, 81.639099%)" fill-opacity="1" d="M 2046.671875 2406.382812 C 2046.671875 2406.382812 2056.289062 2411.574219 2071.511719 2417.125 C 2076.570312 2418.96875 2082.148438 2420.808594 2088.238281 2422.613281 C 2090.511719 2423.28125 2092.828125 2423.941406 2095.191406 2424.652344 C 2097.449219 2425.335938 2099.75 2426.03125 2102.078125 2426.769531 C 2106.570312 2428.191406 2111.128906 2429.691406 2115.960938 2430.902344 C 2119.988281 2431.914062 2124.011719 2432.859375 2128.261719 2433.589844 C 2134.519531 2434.65625 2140.761719 2435.4375 2147.5 2435.449219 C 2140.921875 2437.625 2134.589844 2439.074219 2128.101562 2439.855469 C 2123.519531 2440.40625 2119.089844 2440.542969 2114.648438 2440.429688 C 2110.019531 2440.316406 2105.539062 2439.890625 2101.179688 2439.105469 C 2098.171875 2438.566406 2095.25 2437.835938 2092.449219 2436.929688 C 2088.011719 2435.492188 2083.878906 2433.679688 2080.03125 2431.753906 C 2077.25 2430.363281 2074.671875 2428.910156 2072.238281 2427.367188 C 2055.761719 2416.917969 2046.671875 2406.382812 2046.671875 2406.382812 "/>
<path fill-rule="evenodd" fill="rgb(62.304688%, 78.709412%, 81.639099%)" fill-opacity="1" d="M 2031.839844 2436.878906 C 2031.839844 2436.878906 2041.21875 2441.578125 2055.789062 2447.03125 C 2060.648438 2448.847656 2065.988281 2450.710938 2071.789062 2452.605469 C 2073.949219 2453.3125 2076.160156 2454.019531 2078.398438 2454.789062 C 2080.558594 2455.53125 2082.738281 2456.292969 2084.941406 2457.105469 C 2089.21875 2458.691406 2093.519531 2460.378906 2098.050781 2461.820312 C 2101.871094 2463.039062 2105.660156 2464.207031 2109.648438 2465.183594 C 2115.648438 2466.652344 2121.558594 2467.835938 2127.921875 2468.28125 C 2121.578125 2469.996094 2115.441406 2471.035156 2109.089844 2471.425781 C 2104.710938 2471.695312 2100.460938 2471.589844 2096.191406 2471.257812 C 2091.800781 2470.914062 2087.539062 2470.304688 2083.390625 2469.363281 C 2080.550781 2468.722656 2077.789062 2467.910156 2075.140625 2466.933594 C 2070.980469 2465.398438 2067.101562 2463.53125 2063.46875 2461.574219 C 2060.871094 2460.167969 2058.441406 2458.714844 2056.148438 2457.1875 C 2040.648438 2446.824219 2031.839844 2436.878906 2031.839844 2436.878906 "/>
<path fill-rule="evenodd" fill="rgb(62.304688%, 78.709412%, 81.639099%)" fill-opacity="1" d="M 2017.210938 2463.113281 C 2017.210938 2463.113281 2024.730469 2468.242188 2035.960938 2474.613281 C 2039.808594 2476.796875 2043.980469 2479.042969 2048.460938 2481.367188 C 2050.148438 2482.246094 2051.871094 2483.117188 2053.589844 2484.054688 C 2055.25 2484.960938 2035.519531 2485.875 2033.859375 2484.191406 C 2023.050781 2473.175781 2017.210938 2463.113281 2017.210938 2463.113281 "/>
<path fill-rule="evenodd" fill="rgb(79.296875%, 90.625%, 89.451599%)" fill-opacity="1" d="M 2173.761719 2486.78125 C 2173.761719 2486.78125 2185.589844 2491.863281 2208.570312 2486.238281 C 2267.460938 2471.824219 2374.609375 2437.898438 2390.511719 2379.125 C 2409.28125 2309.765625 2275.21875 2408.941406 2283.390625 2361.132812 C 2291.570312 2313.320312 2416.28125 2249.175781 2401.921875 2209.488281 C 2387.570312 2169.804688 2300.910156 2253.976562 2284.730469 2233.753906 C 2268.558594 2213.53125 2364.578125 2115.96875 2337.441406 2067.808594 C 2310.308594 2019.652344 2290 2102.316406 2257.921875 2165.261719 C 2225.839844 2228.207031 2190.550781 2141.082031 2151.160156 2150.964844 C 2097.441406 2164.4375 2199.601562 2275.980469 2171.820312 2319.90625 C 2146.210938 2360.398438 2080.171875 2195.089844 2065.53125 2304.195312 C 2051.820312 2406.308594 2116.230469 2461.792969 2150.160156 2483.535156 C 2161.871094 2491.03125 2173.761719 2486.78125 2173.761719 2486.78125 "/>
<path fill-rule="evenodd" fill="rgb(62.304688%, 78.709412%, 81.639099%)" fill-opacity="1" d="M 2192.960938 2439.101562 C 2201.898438 2438.152344 2238.039062 2433.945312 2273.058594 2424.628906 C 2292.5 2419.453125 2311.589844 2412.714844 2325.46875 2404.066406 C 2325.878906 2403.804688 2326.390625 2403.898438 2326.621094 2404.273438 C 2326.839844 2404.648438 2326.691406 2405.167969 2326.28125 2405.429688 C 2312.378906 2414.429688 2293.160156 2421.617188 2273.539062 2427.210938 C 2236.148438 2437.882812 2197.351562 2442.757812 2191.589844 2443.445312 C 2186.050781 2461.113281 2181.621094 2475.359375 2178.808594 2484.445312 C 2178.421875 2485.699219 2174.269531 2485.144531 2174.558594 2484.246094 C 2178.320312 2472.386719 2185.078125 2451.179688 2193.589844 2424.828125 C 2189.910156 2421.96875 2159.109375 2397.726562 2133.269531 2367.449219 C 2120.710938 2352.730469 2109.328125 2336.589844 2102.800781 2320.785156 C 2102.628906 2320.378906 2102.839844 2319.878906 2103.269531 2319.664062 C 2103.710938 2319.453125 2104.199219 2319.609375 2104.371094 2320.011719 C 2111.140625 2335.515625 2122.730469 2351.261719 2135.449219 2365.585938 C 2159.578125 2392.757812 2187.789062 2414.804688 2195.050781 2420.316406 C 2207.300781 2382.449219 2222.890625 2334.851562 2238.359375 2289.230469 C 2239.070312 2287.140625 2239.78125 2285.054688 2240.488281 2282.972656 C 2240.191406 2282.839844 2239.929688 2282.636719 2239.738281 2282.359375 L 2174.859375 2188.925781 C 2174.601562 2188.570312 2174.71875 2188.046875 2175.109375 2187.761719 C 2175.5 2187.472656 2176.03125 2187.527344 2176.28125 2187.882812 L 2242.171875 2278.042969 C 2259.5 2227.269531 2276.328125 2180.195312 2287.789062 2153.367188 C 2287.980469 2152.929688 2288.480469 2152.683594 2288.910156 2152.820312 C 2289.339844 2152.957031 2289.539062 2153.421875 2289.351562 2153.859375 C 2277.28125 2182.679688 2259.191406 2234.816406 2240.96875 2289.816406 C 2239.011719 2295.710938 2237.058594 2301.640625 2235.109375 2307.5625 C 2244.949219 2302.996094 2283.480469 2284.882812 2312.511719 2268.007812 C 2326.640625 2259.789062 2338.53125 2251.894531 2343.640625 2246.007812 C 2343.960938 2245.640625 2344.488281 2245.558594 2344.839844 2245.828125 C 2345.191406 2246.097656 2345.210938 2246.617188 2344.898438 2246.988281 C 2339.800781 2253.078125 2327.878906 2261.398438 2313.628906 2270.050781 C 2280.308594 2290.28125 2234.28125 2312.441406 2234.28125 2312.441406 C 2234 2312.570312 2233.71875 2312.640625 2233.441406 2312.660156 C 2218.371094 2358.675781 2203.75 2404.722656 2192.960938 2439.101562 "/>
<path fill-rule="evenodd" fill="rgb(14.109802%, 22.705078%, 61.521912%)" fill-opacity="1" d="M 2629.828125 2487.242188 C 2629.828125 2482.21875 2627.441406 2478.144531 2624.488281 2478.144531 C 2507.199219 2478.144531 494.296875 2478.144531 377.003906 2478.144531 C 374.054688 2478.144531 371.664062 2482.21875 371.664062 2487.242188 C 371.664062 2487.242188 371.664062 2487.242188 371.664062 2487.246094 C 371.664062 2492.269531 374.054688 2496.34375 377.003906 2496.34375 C 494.296875 2496.34375 2507.199219 2496.34375 2624.488281 2496.34375 C 2627.441406 2496.34375 2629.828125 2492.269531 2629.828125 2487.246094 C 2629.828125 2487.242188 2629.828125 2487.242188 2629.828125 2487.242188 "/>
</svg>