<svg xmlns="http://www.w3.org/2000/svg" viewBox="0 0 64 64" id="risk-management">
  <path d="M32.215 25.75a5.25 5.25 0 1 1 5.25-5.25 5.256 5.256 0 0 1-5.25 5.25zm0-9a3.75 3.75 0 1 0 3.75 3.75 3.754 3.754 0 0 0-3.75-3.75zm6.57 44h-5.01a.75.75 0 0 1-.75-.75V48A1.253 1.253 0 0 0 32 46.77 1.253 1.253 0 0 0 30.975 48v12a.75.75 0 0 1-.75.75h-5.01a.75.75 0 0 1-.75-.75V36.233l-1.876 1.642a.733.733 0 0 1-.564.182l-11.88-1.1a.75.75 0 0 1-.483-1.254l2.03-2.21a.75.75 0 0 1 .421-.231l8.682-1.556 3.9-4.215a.752.752 0 0 1 .55-.241h3.23a.748.748 0 0 1 .625.336 3.718 3.718 0 0 0 2.9 1.658 3.718 3.718 0 0 0 2.9-1.658.748.748 0 0 1 .625-.336h3.23a.752.752 0 0 1 .55.24l3.9 4.216 8.682 1.556a.75.75 0 0 1 .42.23l2.03 2.21a.75.75 0 0 1-.483 1.255l-11.88 1.1a.745.745 0 0 1-.563-.182l-1.876-1.642V60a.75.75 0 0 1-.75.75zm-4.26-1.5h3.51V34.58a.75.75 0 0 1 1.244-.564l2.878 2.518 10.052-.931-.835-.91-8.68-1.555a.753.753 0 0 1-.42-.229l-3.847-4.159h-2.518a5.21 5.21 0 0 1-3.44 1.956.754.754 0 0 1-.254.044h-.43a.754.754 0 0 1-.254-.044 5.21 5.21 0 0 1-3.44-1.956h-2.518l-3.847 4.16a.753.753 0 0 1-.42.228l-8.68 1.556-.835.909 10.052.93 2.878-2.517a.75.75 0 0 1 1.244.564v24.67h3.51V48a2.755 2.755 0 0 1 1.848-2.598.745.745 0 0 1 .452-.152h.45a.745.745 0 0 1 .452.152A2.755 2.755 0 0 1 34.525 48zM12 29.75A8.75 8.75 0 1 1 20.75 21 8.76 8.76 0 0 1 12 29.75zm0-16A7.25 7.25 0 1 0 19.25 21 7.258 7.258 0 0 0 12 13.75zm40 16A8.75 8.75 0 1 1 60.75 21 8.76 8.76 0 0 1 52 29.75zm0-16A7.25 7.25 0 1 0 59.25 21 7.258 7.258 0 0 0 52 13.75z"></path>
  <path d="M52 22.75a.75.75 0 0 1-.75-.75v-5a.75.75 0 0 1 1.5 0v5a.75.75 0 0 1-.75.75zm0 3a.75.75 0 0 1-.53-1.28.755.755 0 0 1 1.06 0 .75.75 0 0 1 0 1.06.787.787 0 0 1-.24.16.718.718 0 0 1-.29.06zm-41-2a.75.75 0 0 1-.53-.22l-2-2a.75.75 0 0 1 1.06-1.06l1.526 1.525 4.475-3.58a.75.75 0 1 1 .938 1.17l-5 4a.748.748 0 0 1-.469.165z"></path>
</svg>
